<?xml version="1.0" standalone="no"?>
<!DOCTYPE svg PUBLIC "-//W3C//DTD SVG 20010904//EN"
 "http://www.w3.org/TR/2001/REC-SVG-20010904/DTD/svg10.dtd">
<svg version="1.0" xmlns="http://www.w3.org/2000/svg"
 width="1267.000000pt" height="878.000000pt" viewBox="0 0 1267.000000 878.000000"
 preserveAspectRatio="xMidYMid meet">

<g transform="translate(0.000000,878.000000) scale(0.100000,-0.100000)"
fill="#000000" stroke="none">
<path d="M6865 6788 c-5 -13 -54 -235 -81 -368 -19 -93 -18 -100 11 -100 29 0
40 18 50 80 4 25 13 72 21 105 7 33 19 87 25 120 11 55 13 58 20 30 4 -16 17
-97 30 -178 22 -138 25 -148 47 -154 28 -7 40 4 77 72 100 184 155 274 155
253 0 -2 -13 -64 -30 -138 -37 -170 -38 -190 -6 -190 30 0 34 5 46 67 5 26 25
125 44 218 20 94 36 176 36 183 0 7 -14 12 -39 12 l-39 0 -56 -102 c-31 -57
-79 -141 -106 -188 -28 -47 -50 -91 -50 -97 0 -7 -4 -13 -9 -13 -5 0 -12 28
-16 63 -3 34 -13 98 -21 142 -8 44 -18 105 -22 135 -7 55 -7 55 -45 58 -24 2
-39 -1 -42 -10z"/>
<path d="M7381 6750 c-15 -71 -14 -110 4 -117 9 -3 18 -3 21 -1 6 6 39 104 48
141 6 25 4 27 -28 27 -33 0 -35 -2 -45 -50z"/>
<path d="M7225 6245 c-257 -209 -522 -421 -586 -470 -42 -32 -282 -225 -309
-248 -14 -12 -72 -59 -130 -105 -58 -46 -127 -102 -154 -125 -28 -23 -141
-114 -252 -202 -111 -88 -290 -232 -399 -320 -109 -88 -209 -169 -224 -180
-14 -10 -111 -87 -216 -170 -104 -83 -202 -160 -216 -170 -14 -11 -104 -83
-199 -160 -176 -143 -318 -255 -494 -393 -55 -42 -131 -104 -170 -136 -39 -32
-107 -86 -151 -119 -44 -34 -105 -82 -135 -108 -63 -53 -51 -43 -230 -185
-162 -128 -358 -282 -489 -384 -53 -41 -107 -85 -121 -97 -14 -12 -75 -62
-137 -110 -223 -176 -532 -420 -683 -541 -630 -503 -629 -502 -584 -519 15 -6
403 0 1944 27 685 12 1057 19 1335 25 127 3 547 9 935 15 388 5 829 12 980 15
611 11 2027 24 2700 25 393 0 723 3 735 6 17 4 23 21 39 99 19 98 17 115 -13
115 -20 0 -31 -26 -31 -72 0 -42 -15 -34 -50 27 -36 63 -46 71 -65 55 -10 -8
-11 -18 -5 -34 16 -43 70 -114 92 -121 45 -15 -367 -23 -1602 -29 -690 -3
-1366 -9 -1502 -13 l-248 -6 0 40 c0 28 -5 43 -16 47 -22 9 -22 9 -29 -23 -13
-59 -11 -59 -365 -65 -179 -4 -615 -11 -970 -16 -915 -14 -1247 -20 -1555 -30
-148 -5 -379 -9 -512 -10 -134 0 -249 -2 -255 -5 -7 -2 -229 -6 -493 -9 -264
-4 -573 -9 -687 -12 -120 -4 -208 -3 -208 2 0 11 21 21 305 148 308 137 656
295 690 313 17 8 129 59 250 113 321 142 714 320 837 378 59 28 151 70 205 93
54 22 139 61 188 84 50 24 171 80 270 123 99 44 232 103 295 132 63 29 225
102 360 162 135 61 356 162 492 224 135 63 249 114 251 114 3 0 34 13 69 29
35 16 88 40 118 54 30 14 96 44 145 67 50 23 157 71 240 107 82 35 154 68 160
73 6 5 62 31 125 58 63 27 194 85 290 129 96 44 198 90 225 102 28 13 58 27
68 33 29 15 32 3 15 -56 -15 -56 -10 -86 17 -86 16 0 33 52 42 127 5 48 8 53
42 67 20 8 89 39 155 71 65 31 144 67 175 79 31 13 112 50 181 81 195 89 523
235 527 235 1 0 3 -6 3 -14 0 -8 14 -39 32 -70 31 -53 58 -70 73 -46 7 11 -47
111 -70 130 -13 11 12 25 152 87 93 41 312 140 488 220 362 164 346 157 555
251 85 38 216 97 290 131 148 68 152 70 290 131 52 23 145 66 207 96 62 30
115 54 118 54 3 0 34 13 68 29 34 15 111 50 170 77 105 46 144 78 117 94 -18
11 -150 31 -161 25 -19 -12 -9 -43 18 -52 l27 -9 -42 -17 c-22 -9 -60 -25 -84
-36 -24 -11 -117 -53 -208 -94 -91 -41 -221 -100 -290 -132 -69 -31 -138 -62
-155 -70 -83 -36 -156 -69 -210 -95 -67 -32 -399 -183 -700 -318 -110 -50
-229 -104 -265 -120 -36 -17 -135 -62 -220 -100 -85 -39 -211 -96 -280 -127
-69 -31 -165 -75 -215 -97 -49 -22 -133 -60 -185 -83 -52 -24 -187 -85 -300
-135 -113 -50 -233 -106 -267 -123 -54 -28 -64 -30 -85 -19 -13 7 -53 14 -88
15 -54 2 -65 -1 -68 -16 -4 -19 2 -22 63 -33 l40 -7 -46 -21 c-25 -11 -70 -32
-100 -45 -29 -13 -110 -50 -179 -81 -144 -67 -179 -82 -315 -141 -55 -24 -119
-54 -143 -67 -24 -13 -111 -53 -194 -88 -84 -36 -217 -96 -297 -133 -80 -38
-209 -97 -286 -131 -77 -35 -191 -87 -253 -116 -62 -30 -115 -54 -117 -54 -2
0 -88 -39 -192 -86 -103 -47 -273 -125 -378 -171 -174 -78 -275 -123 -544
-243 -52 -22 -142 -64 -200 -92 -59 -28 -176 -81 -261 -118 -85 -38 -198 -88
-250 -113 -52 -24 -115 -54 -140 -65 -25 -11 -117 -52 -205 -92 -88 -40 -245
-110 -350 -156 -104 -47 -201 -91 -215 -98 -14 -8 -107 -50 -207 -95 -100 -44
-210 -94 -245 -110 -169 -80 -373 -170 -377 -165 -3 2 4 11 15 18 23 17 323
255 419 334 54 44 336 266 455 358 8 7 44 36 80 66 36 29 117 94 180 143 63
49 172 135 241 190 70 55 229 181 354 280 125 99 264 209 308 245 44 36 128
103 187 150 59 47 152 121 207 165 99 79 179 143 277 220 64 49 425 338 526
419 106 87 223 176 230 176 3 0 15 -20 26 -43 25 -50 49 -56 48 -12 0 17 -2
37 -5 45 -3 11 3 14 21 12 43 -5 70 6 63 26 -9 22 -23 32 -50 32 -13 0 -23 3
-23 8 1 4 51 46 113 94 154 121 414 328 796 635 73 60 184 149 245 198 137
110 355 285 416 335 25 20 157 126 294 236 137 109 262 210 279 223 33 27 33
27 69 -38 18 -33 45 -41 54 -16 3 8 -3 30 -14 49 -12 20 -18 43 -15 60 4 18 1
26 -8 26 -8 0 -23 3 -34 6 -15 4 -40 -11 -90 -51z"/>
<path d="M7442 6249 c2 -18 12 -25 43 -32 52 -10 117 -5 122 10 6 18 -28 32
-101 39 -67 7 -68 7 -64 -17z"/>
<path d="M11378 6238 c-9 -8 -20 -42 -27 -83 -6 -38 -17 -101 -25 -140 -7 -38
-17 -87 -20 -107 -9 -48 -20 -48 -34 0 -7 21 -44 105 -82 186 -71 147 -71 147
-103 144 l-32 -3 -41 -210 c-22 -116 -44 -223 -48 -238 -6 -27 -5 -28 26 -25
l33 3 22 105 c20 94 35 167 49 239 7 32 16 20 54 -69 18 -41 55 -121 82 -177
43 -89 52 -103 74 -103 16 0 28 8 34 23 11 26 90 417 90 447 0 23 -27 27 -52
8z"/>
<path d="M11520 6235 c-7 -9 -15 -49 -18 -90 -4 -64 -2 -75 11 -75 9 0 22 10
28 23 17 30 48 145 41 152 -11 11 -50 4 -62 -10z"/>
<path d="M7693 6233 c-7 -2 -13 -13 -13 -23 0 -12 12 -21 43 -28 92 -24 105
-25 116 -4 14 26 -1 38 -59 47 -25 3 -52 8 -60 10 -8 2 -21 1 -27 -2z"/>
<path d="M7916 6184 c-9 -25 6 -36 61 -45 87 -14 103 -12 103 15 0 28 -9 32
-96 41 -53 6 -62 4 -68 -11z"/>
<path d="M8157 6148 c-10 -27 8 -37 78 -47 73 -11 85 -8 85 15 0 18 -31 30
-102 39 -43 5 -56 4 -61 -7z"/>
<path d="M8397 6107 c-9 -25 14 -36 91 -43 68 -6 72 -6 72 13 0 25 -13 31 -94
39 -52 5 -64 4 -69 -9z"/>
<path d="M7403 6073 c-4 -9 6 -38 22 -67 36 -65 44 -76 60 -76 25 0 24 31 -2
78 -43 79 -67 99 -80 65z"/>
<path d="M8634 6075 c-10 -25 7 -35 80 -47 48 -8 70 -8 78 0 19 19 1 39 -44
46 -23 4 -58 9 -75 12 -25 5 -34 2 -39 -11z"/>
<path d="M8874 6036 c-9 -24 -3 -27 77 -42 73 -14 89 -12 89 10 0 24 -23 34
-92 41 -58 6 -69 5 -74 -9z"/>
<path d="M9127 6012 c-35 -8 -13 -37 38 -50 69 -17 110 -13 110 12 0 14 -9 22
-30 27 -47 11 -98 16 -118 11z"/>
<path d="M9354 5965 c-9 -24 20 -45 62 -45 17 0 45 -3 63 -6 23 -5 32 -2 37
11 11 27 -17 43 -88 50 -59 6 -69 5 -74 -10z"/>
<path d="M9597 5943 c-13 -13 -7 -41 11 -48 9 -3 48 -9 85 -12 68 -6 69 -6 65
18 -2 18 -11 25 -38 30 -75 14 -117 18 -123 12z"/>
<path d="M9834 5895 c-10 -25 5 -33 79 -45 74 -12 87 -9 87 20 0 25 -3 26 -88
34 -62 6 -73 5 -78 -9z"/>
<path d="M7523 5864 c-6 -15 37 -105 63 -134 12 -12 16 -12 30 2 15 14 13 21
-22 82 -38 65 -59 81 -71 50z"/>
<path d="M10079 5864 c-11 -14 -11 -18 5 -29 27 -20 146 -31 156 -15 15 24 -1
38 -48 44 -26 4 -59 9 -73 12 -17 3 -31 -1 -40 -12z"/>
<path d="M10317 5826 c-8 -21 10 -31 83 -44 54 -10 67 -9 79 3 21 20 4 35 -51
46 -66 13 -105 11 -111 -5z"/>
<path d="M10670 5676 c0 -3 -7 -37 -15 -77 -16 -74 -9 -104 20 -93 20 8 49
142 34 160 -10 13 -39 20 -39 10z"/>
<path d="M7643 5653 c-4 -9 6 -38 22 -67 36 -65 44 -76 60 -76 24 0 23 28 -2
76 -42 80 -67 101 -80 67z"/>
<path d="M7767 5453 c-14 -13 -6 -38 25 -90 52 -85 96 -63 46 24 -36 64 -56
82 -71 66z"/>
<path d="M10632 5432 c-15 -10 -38 -123 -29 -146 10 -24 36 -19 47 10 14 35
17 136 5 140 -5 2 -16 0 -23 -4z"/>
<path d="M7883 5233 c-6 -16 40 -115 64 -135 15 -12 33 -2 33 19 0 26 -62 133
-77 133 -7 0 -17 -7 -20 -17z"/>
<path d="M10584 5188 c-11 -18 -30 -121 -26 -140 2 -10 12 -18 22 -18 10 0 21
8 24 18 13 42 25 123 20 137 -7 18 -30 20 -40 3z"/>
<path d="M4576 5028 c-2 -7 -9 -40 -14 -73 -6 -33 -26 -134 -46 -225 -34 -163
-34 -180 -1 -180 26 0 36 27 68 190 19 98 37 166 40 155 3 -11 18 -91 34 -177
l28 -158 31 0 c30 0 35 7 117 153 47 83 89 160 92 169 4 10 11 16 15 13 4 -3
0 -38 -10 -77 -30 -125 -50 -222 -50 -240 0 -13 8 -18 29 -18 35 0 33 -5 66
165 23 124 48 243 60 293 5 22 3 23 -37 20 l-42 -3 -64 -110 c-35 -60 -87
-153 -116 -205 -46 -85 -51 -92 -54 -65 -2 17 -11 77 -22 135 -10 58 -22 130
-25 160 -10 88 -12 90 -56 90 -23 0 -41 -5 -43 -12z"/>
<path d="M8000 5017 c0 -31 61 -132 80 -132 27 0 22 40 -12 98 -34 61 -68 77
-68 34z"/>
<path d="M10537 4953 c-11 -20 -29 -134 -24 -148 9 -21 34 -19 46 4 6 10 13
48 17 85 6 62 6 66 -14 66 -11 0 -23 -3 -25 -7z"/>
<path d="M8127 4823 c-13 -13 -7 -35 26 -89 24 -41 37 -54 52 -52 27 4 22 29
-18 96 -29 49 -45 61 -60 45z"/>
<path d="M10480 4650 c-15 -89 -7 -114 27 -92 13 8 33 94 33 138 0 19 -5 24
-24 24 -22 0 -25 -6 -36 -70z"/>
<path d="M10453 4478 c-6 -7 -16 -42 -22 -77 -11 -56 -11 -66 3 -80 14 -13 18
-13 29 -1 20 22 39 140 26 157 -14 16 -24 16 -36 1z"/>
<path d="M5265 4440 c-13 -21 17 -38 83 -48 52 -7 66 -6 78 6 14 13 14 17 1
30 -20 19 -151 30 -162 12z"/>
<path d="M5510 4400 c-13 -25 7 -34 98 -45 62 -7 64 -7 60 16 -3 24 -20 31
-100 42 -41 6 -49 4 -58 -13z"/>
<path d="M8367 4403 c-13 -12 -7 -31 26 -87 32 -55 50 -71 68 -60 16 10 9 38
-21 84 -47 71 -57 80 -73 63z"/>
<path d="M5747 4367 c-9 -24 12 -35 86 -45 72 -9 77 -8 77 19 0 21 -11 25 -92
34 -54 6 -66 4 -71 -8z"/>
<path d="M5994 4335 c-4 -9 -2 -21 3 -26 16 -16 142 -34 154 -22 20 20 -2 41
-49 47 -26 4 -59 9 -75 12 -19 4 -29 1 -33 -11z"/>
<path d="M6234 4295 c-11 -27 10 -37 84 -43 48 -3 72 -1 77 8 13 21 -18 38
-88 45 -57 6 -68 4 -73 -10z"/>
<path d="M5145 4269 c-17 -27 45 -149 76 -149 26 0 24 23 -8 87 -29 56 -56 82
-68 62z"/>
<path d="M6477 4274 c-4 -4 -7 -15 -7 -25 0 -13 14 -20 58 -29 31 -6 62 -13
69 -15 6 -2 18 2 28 8 26 20 8 44 -38 51 -23 4 -56 9 -72 12 -17 3 -34 2 -38
-2z"/>
<path d="M10406 4238 c-9 -25 -26 -119 -26 -138 0 -15 7 -20 25 -20 20 0 25 6
31 38 4 20 8 57 8 82 1 35 -3 45 -17 48 -9 2 -19 -2 -21 -10z"/>
<path d="M6714 4226 c-11 -28 14 -44 83 -51 50 -5 68 -4 74 7 20 31 -1 43 -88
53 -53 6 -64 4 -69 -9z"/>
<path d="M8490 4190 c-13 -8 -11 -17 13 -64 32 -61 60 -91 76 -81 17 10 13 34
-11 74 -13 19 -27 44 -33 55 -12 24 -25 29 -45 16z"/>
<path d="M7664 4122 c-6 -4 -14 -30 -18 -58 -3 -28 -13 -75 -20 -105 -8 -30
-20 -91 -26 -136 -12 -84 -23 -97 -33 -45 -3 16 -38 99 -78 186 l-73 156 -33
0 c-19 0 -35 -6 -37 -12 -5 -17 -56 -278 -66 -343 -5 -27 -13 -64 -18 -82 -12
-37 -8 -43 28 -43 27 0 28 3 49 108 61 295 57 280 71 247 7 -16 25 -57 40 -90
15 -33 44 -100 65 -150 46 -109 52 -117 83 -113 19 2 28 11 34 33 12 46 88
424 88 441 0 15 -37 19 -56 6z"/>
<path d="M5254 4046 c-7 -18 54 -136 74 -143 7 -3 18 -1 24 5 7 7 0 31 -23 79
-33 67 -63 90 -75 59z"/>
<path d="M10365 3998 c-10 -29 -25 -105 -25 -131 0 -24 4 -28 23 -25 19 3 24
13 36 77 12 62 12 74 0 82 -19 12 -29 11 -34 -3z"/>
<path d="M8605 3970 c-10 -16 66 -140 86 -140 31 0 31 19 2 68 -16 26 -32 55
-36 65 -7 19 -42 23 -52 7z"/>
<path d="M7046 3814 c-18 -72 -14 -107 12 -102 12 2 22 25 34 73 19 78 18 95
-10 95 -16 0 -23 -13 -36 -66z"/>
<path d="M5371 3837 c-13 -17 48 -140 73 -145 26 -5 29 23 7 64 -12 21 -21 44
-21 50 0 11 -32 44 -42 44 -3 0 -11 -6 -17 -13z"/>
<path d="M8737 3773 c-23 -22 41 -153 75 -153 30 0 30 19 -1 73 -49 82 -60 95
-74 80z"/>
<path d="M10325 3759 c-11 -17 -35 -141 -29 -150 11 -18 44 -9 49 14 18 76 23
123 13 134 -13 16 -25 16 -33 2z"/>
<path d="M7005 3638 c-3 -7 -11 -42 -19 -78 -12 -51 -13 -68 -3 -77 7 -7 17
-9 24 -5 17 10 46 127 38 152 -7 22 -33 27 -40 8z"/>
<path d="M5483 3613 c-8 -21 55 -143 74 -143 35 0 18 76 -30 136 -22 28 -35
30 -44 7z"/>
<path d="M8857 3563 c-13 -12 -7 -41 18 -86 31 -54 50 -71 71 -63 20 8 12 33
-33 103 -33 52 -43 60 -56 46z"/>
<path d="M10283 3518 c-6 -7 -16 -41 -22 -76 -10 -51 -10 -66 2 -82 12 -18 16
-18 26 -6 16 19 37 137 28 159 -8 20 -21 22 -34 5z"/>
<path d="M5601 3406 c-10 -11 -5 -29 24 -85 34 -68 59 -88 71 -57 6 16 -46
126 -69 144 -11 10 -17 9 -26 -2z"/>
<path d="M6953 3398 c-10 -12 -33 -116 -33 -145 0 -9 8 -13 22 -11 18 2 25 13
35 53 16 71 16 115 -1 115 -7 0 -18 -6 -23 -12z"/>
<path d="M8974 3336 c-8 -20 63 -146 82 -146 28 0 26 29 -8 92 -34 63 -63 84
-74 54z"/>
<path d="M10241 3276 c-15 -17 -35 -131 -27 -151 9 -24 36 -17 46 11 6 15 11
54 13 87 2 61 -9 81 -32 53z"/>
<path d="M5710 3175 c0 -9 14 -42 30 -75 22 -43 36 -60 50 -60 29 0 25 33 -11
96 -20 36 -37 54 -50 54 -10 0 -19 -7 -19 -15z"/>
<path d="M6896 3161 c-3 -5 -13 -39 -21 -76 -16 -70 -11 -93 18 -82 16 6 52
140 42 156 -8 13 -32 14 -39 2z"/>
<path d="M9100 3117 c0 -35 61 -138 80 -134 26 4 21 40 -13 97 -37 61 -67 77
-67 37z"/>
<path d="M10181 2977 c-17 -95 -15 -109 11 -105 20 3 24 13 35 77 13 80 11 91
-17 91 -14 0 -20 -13 -29 -63z"/>
<path d="M5824 2966 c-8 -20 57 -140 77 -144 31 -6 28 28 -7 93 -35 63 -59 80
-70 51z"/>
<path d="M6835 2918 c-2 -7 -11 -42 -20 -77 -17 -65 -11 -89 18 -78 17 6 52
129 44 151 -8 19 -36 21 -42 4z"/>
<path d="M9223 2914 c-13 -35 61 -152 90 -141 26 10 21 29 -24 96 -42 63 -55
72 -66 45z"/>
<path d="M10161 2800 c-19 -11 -43 -141 -29 -157 14 -18 35 -16 42 3 11 30 19
151 9 157 -5 3 -15 2 -22 -3z"/>
<path d="M5941 2753 c-11 -21 54 -153 76 -153 28 0 26 34 -6 96 -35 67 -55 83
-70 57z"/>
<path d="M9344 2696 c-6 -15 48 -117 72 -137 20 -17 38 2 30 33 -3 13 -19 44
-36 71 -30 47 -56 60 -66 33z"/>
<path d="M6793 2692 c-14 -9 -43 -106 -43 -144 0 -17 5 -28 14 -28 20 0 32 19
45 72 19 78 13 118 -16 100z"/>
<path d="M10105 2548 c-8 -25 -23 -143 -18 -150 8 -14 41 -8 47 8 3 9 9 47 12
85 7 66 6 69 -15 69 -12 0 -24 -6 -26 -12z"/>
<path d="M6050 2525 c0 -20 44 -108 65 -128 22 -23 48 -10 41 19 -12 46 -62
119 -84 122 -15 2 -22 -2 -22 -13z"/>
<path d="M9473 2483 c-4 -9 8 -42 28 -80 26 -49 39 -63 54 -61 32 5 28 29 -15
96 -41 64 -56 74 -67 45z"/>
<path d="M6725 2439 c-9 -14 -34 -118 -35 -142 0 -13 6 -18 23 -15 18 2 25 14
40 73 9 39 15 76 12 83 -5 15 -31 16 -40 1z"/>
<path d="M6177 2324 c-21 -22 33 -146 66 -152 30 -6 28 23 -5 88 -32 62 -47
78 -61 64z"/>
<path d="M10061 2297 c-5 -13 -12 -48 -16 -78 -5 -42 -3 -58 8 -67 11 -10 17
-9 26 2 15 17 35 131 27 151 -8 23 -35 18 -45 -8z"/>
<path d="M9597 2273 c-13 -12 -7 -30 33 -91 68 -105 100 -68 34 39 -33 55 -51
69 -67 52z"/>
<path d="M6666 2202 c-11 -18 -34 -136 -29 -149 3 -8 13 -13 22 -11 18 4 56
130 47 154 -6 15 -32 19 -40 6z"/>
<path d="M6284 2097 c-8 -23 56 -147 76 -147 30 0 29 24 -5 91 -31 62 -59 85
-71 56z"/>
<path d="M10021 2061 c-6 -11 -14 -51 -17 -91 -7 -72 -7 -72 17 -68 21 3 25
11 37 76 10 57 10 77 1 88 -16 19 -26 18 -38 -5z"/>
<path d="M9723 2053 c-4 -10 6 -39 24 -72 62 -111 112 -100 53 12 -42 79 -64
95 -77 60z"/>
<path d="M6606 1958 c-2 -7 -11 -42 -20 -78 -13 -58 -14 -67 0 -80 14 -13 17
-13 28 3 17 22 40 131 33 152 -8 18 -36 20 -41 3z"/>
<path d="M6400 1869 c0 -36 60 -139 81 -139 28 0 24 34 -13 101 -34 61 -68 80
-68 38z"/>
<path d="M10141 1519 c-5 -13 -22 -96 -37 -184 -14 -88 -30 -180 -35 -205 -13
-71 -11 -87 10 -93 30 -8 40 6 52 69 5 32 15 76 20 97 l10 37 97 0 c123 0 174
22 209 89 35 67 31 122 -11 168 l-34 37 -136 4 c-135 4 -135 4 -145 -19z m257
-55 c36 -25 31 -87 -12 -130 -34 -34 -35 -34 -125 -34 -88 0 -91 1 -91 23 0
24 26 133 36 148 10 16 167 11 192 -7z"/>
<path d="M10565 1493 c-3 -27 -8 -65 -11 -85 -5 -30 -2 -39 11 -44 24 -9 41
13 59 75 25 86 22 101 -18 101 -34 0 -35 -1 -41 -47z"/>
<path d="M6405 1448 c-2 -7 -15 -76 -30 -153 -14 -77 -35 -180 -46 -229 -21
-95 -17 -110 22 -104 21 3 26 12 41 86 24 120 16 112 105 112 92 1 147 12 182
37 34 25 71 98 71 140 0 49 -29 101 -63 113 -44 15 -277 13 -282 -2z m258 -60
c29 -22 31 -69 5 -108 -33 -49 -61 -60 -157 -60 l-83 0 6 38 c4 20 12 61 18
90 l11 52 92 0 c57 0 97 -5 108 -12z"/>
<path d="M1045 1418 c-127 -65 -193 -218 -150 -349 21 -65 45 -93 107 -125 83
-42 164 -25 251 55 138 128 129 365 -16 426 -52 22 -143 19 -192 -7z m181 -55
c44 -28 67 -88 60 -155 -15 -150 -121 -250 -232 -219 -81 23 -109 71 -102 177
6 90 39 151 101 188 51 31 133 35 173 9z"/>
<path d="M6885 327 c-30 -31 -39 -38 -97 -75 -16 -9 -28 -25 -28 -34 0 -22 -1
-22 43 -3 47 19 56 19 52 -2 -2 -10 -11 -55 -20 -100 -8 -46 -18 -90 -21 -98
-5 -11 1 -15 20 -15 14 0 26 3 26 8 1 4 5 25 9 47 5 22 16 74 24 115 17 80 32
191 26 189 -2 0 -18 -15 -34 -32z"/>
<path d="M7355 313 c-22 -27 -43 -49 -47 -51 -4 -2 -8 -8 -8 -14 0 -6 -10 -21
-22 -33 -146 -146 -152 -176 -33 -172 75 2 76 2 72 -20 -3 -19 0 -23 19 -23
14 0 25 8 29 20 6 19 11 22 45 24 27 2 23 35 -5 46 -25 9 -26 13 -20 53 3 23
13 74 22 114 15 68 13 103 -5 103 -4 0 -25 -21 -47 -47z m0 -110 c-17 -97 -24
-113 -53 -114 -73 -3 -81 9 -37 56 19 22 35 43 35 48 0 10 41 46 53 47 4 0 5
-17 2 -37z"/>
<path d="M7588 348 c-42 -20 -99 -108 -69 -108 5 0 16 -3 25 -6 9 -4 16 -1 16
6 0 7 9 25 21 41 38 53 123 33 121 -29 -1 -41 -15 -66 -57 -98 -19 -14 -35
-33 -35 -40 0 -8 -6 -14 -13 -14 -19 0 -49 -35 -40 -45 5 -4 3 -5 -3 -2 -6 4
-18 -1 -26 -11 -31 -35 -30 -42 1 -42 21 0 31 5 31 15 0 8 4 15 8 15 4 0 23
15 43 33 19 17 53 48 76 67 56 46 75 110 50 162 -9 20 -23 40 -30 46 -21 18
-89 23 -119 10z"/>
<path d="M6300 347 c0 -4 -34 -168 -61 -292 -11 -56 -12 -55 14 -55 20 0 25 9
40 68 23 87 42 112 94 119 36 5 42 3 48 -17 4 -12 4 -38 0 -58 -4 -21 -9 -46
-10 -57 -2 -11 -6 -28 -10 -37 -6 -14 -2 -18 19 -18 20 0 27 6 31 27 4 16 11
48 16 72 13 55 3 117 -19 127 -25 10 -73 4 -104 -14 -15 -9 -30 -13 -33 -10
-4 3 -1 30 5 59 17 84 17 84 -7 87 -13 2 -23 1 -23 -1z"/>
<path d="M5709 333 c-11 -3 -22 -30 -35 -89 l-19 -86 -90 -4 c-49 -2 -96 0
-102 4 -10 6 -10 24 1 85 7 42 11 79 8 82 -3 3 -13 5 -23 5 -13 0 -20 -10 -24
-37 -4 -21 -18 -88 -31 -149 -30 -139 -30 -144 0 -144 19 0 24 6 29 38 11 65
21 71 125 76 51 2 95 0 98 -5 3 -5 -2 -31 -10 -59 l-15 -50 24 0 c29 0 40 19
49 80 3 25 16 89 28 143 21 98 19 117 -13 110z"/>
<path d="M5820 324 c0 -8 4 -14 8 -14 5 0 15 -13 23 -29 10 -21 19 -27 32 -22
16 6 16 8 -2 41 -18 35 -61 52 -61 24z"/>
<path d="M6119 226 c-2 -2 -19 -6 -38 -9 -18 -3 -38 -10 -44 -16 -15 -15 -27
-14 -27 4 0 9 -9 15 -24 15 -22 0 -26 -6 -31 -47 -4 -27 -13 -70 -21 -97 -19
-67 -18 -76 10 -76 21 0 25 7 36 63 15 71 60 127 103 127 43 0 52 -22 38 -95
-6 -35 -14 -71 -17 -80 -5 -11 1 -15 19 -15 24 0 27 6 42 75 19 82 13 130 -15
145 -21 11 -25 12 -31 6z"/>
<path d="M5833 212 c-10 -6 -53 -173 -53 -204 0 -4 11 -8 24 -8 22 0 25 7 40
87 10 49 18 97 19 107 2 21 -12 30 -30 18z"/>
</g>
</svg>
